HIERARCHY
ROOT Hips
{
	OFFSET	0.00	0.00	0.00
	CHANNELS 6 Xposition Yposition Zposition Zrotation Xrotation Yrotation
	JOINT LeftUpLeg
	{
		OFFSET	 0.126116	-0.014019	-0.065224
		CHANNELS 3 Zrotation Xrotation Yrotation
		JOINT LeftLeg
		{
			OFFSET	 0.000000	 0.000000	 0.569914
			CHANNELS 3 Zrotation Xrotation Yrotation
			JOINT LeftFoot
			{
				OFFSET	 0.000000	 0.000000	 0.544423
				CHANNELS 3 Zrotation Xrotation Yrotation
				JOINT LeftToeBase
				{
					OFFSET	 0.000000	 0.000000	 0.207117
					CHANNELS 3 Zrotation Xrotation Yrotation
					End Site
					{
						OFFSET	 0.000000	 0.000000	 0.207117
					}
				}
			}
		}
	}
	JOINT RightUpLeg
	{
		OFFSET	-0.124023	-0.008373	-0.065224
		CHANNELS 3 Zrotation Xrotation Yrotation
		JOINT RightLeg
		{
			OFFSET	 0.000000	 0.000000	 0.570047
			CHANNELS 3 Zrotation Xrotation Yrotation
			JOINT RightFoot
			{
				OFFSET	 0.000000	 0.000000	 0.544354
				CHANNELS 3 Zrotation Xrotation Yrotation
				JOINT RightToeBase
				{
					OFFSET	 0.000000	 0.000000	 0.207540
					CHANNELS 3 Zrotation Xrotation Yrotation
					End Site
					{
						OFFSET	 0.000000	 0.000000	 0.207540
					}
				}
			}
		}
	}
	JOINT Spine
	{
		OFFSET	 0.000184	-0.007763	 0.117403
		CHANNELS 3 Zrotation Xrotation Yrotation
		JOINT Spine1
		{
			OFFSET	 0.000000	 0.000000	 0.137269
			CHANNELS 3 Zrotation Xrotation Yrotation
			JOINT Spine2
			{
				OFFSET	 0.000000	 0.000000	 0.156879
				CHANNELS 3 Zrotation Xrotation Yrotation
				JOINT LeftShoulder
				{
					OFFSET	 0.080501	-0.002496	 0.160144
					CHANNELS 3 Zrotation Xrotation Yrotation
					JOINT LeftArm
					{
						OFFSET	 0.000000	 0.000000	 0.164363
						CHANNELS 3 Zrotation Xrotation Yrotation
						JOINT LeftForeArm
						{
							OFFSET	 0.000000	 0.000000	 0.364576
							CHANNELS 3 Zrotation Xrotation Yrotation
							JOINT LeftHand
							{
								OFFSET	 0.000000	 0.000000	 0.360812
								CHANNELS 3 Zrotation Xrotation Yrotation
								JOINT LeftHandIndex1
								{
									OFFSET	 0.000000	 0.000000	 0.086006
									CHANNELS 3 Zrotation Xrotation Yrotation
									JOINT LeftHandIndex2
									{
										OFFSET	 0.000000	 0.000000	 0.047237
										CHANNELS 3 Zrotation Xrotation Yrotation
										JOINT LeftHandIndex3
										{
											OFFSET	-0.004284	-0.000551	 0.038165
											CHANNELS 3 Zrotation Xrotation Yrotation
											End Site
											{
												OFFSET	-0.004284	-0.000551	 0.038165
											}
										}
									}
								}
							}
						}
					}
				}
				JOINT Neck
				{
					OFFSET	 0.000000	 0.000000	 0.176489
					CHANNELS 3 Zrotation Xrotation Yrotation
					JOINT Head
					{
						OFFSET	 0.000000	-0.001747	 0.077940
						CHANNELS 3 Zrotation Xrotation Yrotation
						End Site
						{
							OFFSET	 0.000000	-0.001747	 0.077940
						}
					}
				}
				JOINT RightShoulder
				{
					OFFSET	-0.080363	 0.000306	 0.159706
					CHANNELS 3 Zrotation Xrotation Yrotation
					JOINT RightArm
					{
						OFFSET	 0.000000	 0.000000	 0.164196
						CHANNELS 3 Zrotation Xrotation Yrotation
						JOINT RightForeArm
						{
							OFFSET	 0.000000	 0.000000	 0.365611
							CHANNELS 3 Zrotation Xrotation Yrotation
							JOINT RightHand
							{
								OFFSET	 0.000000	 0.000000	 0.360648
								CHANNELS 3 Zrotation Xrotation Yrotation
								JOINT RightHandIndex1
								{
									OFFSET	 0.000000	 0.000000	 0.069977
									CHANNELS 3 Zrotation Xrotation Yrotation
									JOINT RightHandIndex2
									{
										OFFSET	 0.000000	 0.000000	 0.052305
										CHANNELS 3 Zrotation Xrotation Yrotation
										JOINT RightHandIndex3
										{
											OFFSET	 0.009002	-0.000782	 0.042196
											CHANNELS 3 Zrotation Xrotation Yrotation
											End Site
											{
												OFFSET	 0.009002	-0.000782	 0.042196
											}
										}
									}
								}
							}
						}
					}
				}
			}
		}
	}
}
MOTION
Frames:    5
Frame Time: 0.03333334
-0.409043	 0.204148	 1.243158	-175.289600	 9.945531	 13.895950	 4.001866	-5.539886	-178.037700	-7.702464	-35.655580	-4.839269	 101.887100	 59.489430	-119.281100	-2.385833	 28.452760	 0.000004	 15.726350	-49.516120	 164.035700	 5.409714	-46.917110	 2.841014	-4.884596	 67.770620	 22.492770	 2.384659	 28.388700	-0.000001	 42.240600	-21.235300	 8.070163	 45.167080	 19.498030	 14.977080	-9.418168	-1.794217	-18.118570	-91.776160	 78.527400	 180.000000	-3.729340	 41.097890	 5.538688	-2.971112	-2.924413	-108.621600	 4.163840	-35.934310	-0.808994	-4.130319	 21.525730	 0.991547	-5.167930	 0.731704	 3.519349	-1.378229	 35.397820	-2.634230	-18.189800	 7.330798	 7.627895	-23.885520	-21.747400	-15.756940	 89.782020	 78.203890	-179.999900	 72.468440	-0.930183	-7.280320	-15.112430	-9.281845	 45.326810	-52.783900	 6.610649	-82.427650	 5.716227	 19.173190	-3.685159	 5.027444	 0.246877	-9.377972	-2.350882	 35.473990	 5.254307
-0.412872	 0.211924	 1.245144	-174.452000	 9.437052	 12.909180	 4.725976	-3.216591	-177.287800	-7.662807	-33.274320	-4.533965	 101.094100	 59.229140	-118.054900	-2.385833	 28.452760	 0.000004	 16.611030	-48.058650	 165.198800	 5.722344	-47.237030	 3.085827	-5.300982	 68.834010	 22.524120	 2.384659	 28.388700	-0.000001	 39.649100	-19.291120	 7.296387	 42.931020	 18.082980	 16.839670	-8.139220	-1.094128	-17.346570	-91.776210	 78.527350	-180.000000	-6.013496	 39.238060	 10.250990	-3.052433	-2.985991	-109.660600	 4.666234	-37.695000	-0.621978	-4.130319	 21.525730	 0.991547	-5.167930	 0.731704	 3.519349	-1.378229	 35.397820	-2.634230	-17.642660	 7.780709	 7.847561	-23.479920	-22.287940	-16.247840	 89.782160	 78.203920	 179.999900	 69.509820	-8.136799	-8.666583	-13.822260	-8.545445	 47.439850	-55.071450	 8.147526	-75.763350	 5.716227	 19.173190	-3.685159	 5.027444	 0.246877	-9.377972	-2.350882	 35.473990	 5.254307
-0.415971	 0.218530	 1.247199	-173.553900	 8.666398	 11.545610	 5.089819	-0.339769	-176.180100	-7.818406	-29.935710	-4.204272	 99.635250	 58.502640	-115.884800	-2.385833	 28.452760	 0.000004	 18.470900	-46.779500	 167.157100	 5.713426	-47.973040	 3.115522	-4.346415	 70.208810	 21.325210	 2.384659	 28.388700	-0.000001	 37.183780	-17.044840	 6.949200	 40.809620	 16.472700	 18.701560	-6.793305	-0.285143	-16.583880	-91.776210	 78.527350	-180.000000	-8.548149	 37.926350	 14.540510	-3.094662	-2.936554	-110.689300	 5.075587	-39.915620	-0.444503	-4.130319	 21.525730	 0.991547	-5.167930	 0.731704	 3.519349	-1.378229	 35.397820	-2.634230	-17.251370	 7.675063	 8.425230	-22.844470	-22.083630	-16.824920	 89.782050	 78.203850	-180.000000	 64.784000	-13.314190	-9.841006	-13.255990	-7.825423	 47.129460	-55.990620	 6.815331	-70.968950	 5.716227	 19.173190	-3.685159	 5.027444	 0.246877	-9.377972	-2.350882	 35.473990	 5.254307
-0.418328	 0.223315	 1.248712	-172.529300	 7.729917	 10.981550	 5.742959	 2.021554	-176.104000	-8.009259	-27.653680	-4.001312	 100.423700	 57.952000	-115.956400	-2.385833	 28.452760	 0.000004	 19.523820	-45.478430	 167.965900	 5.665755	-48.100060	 3.086163	-3.290822	 70.983100	 19.808970	 2.384659	 28.388700	-0.000001	 34.512530	-15.283640	 5.905910	 39.222520	 14.570250	 20.575170	-5.423635	 0.752493	-16.079560	-91.776230	 78.527400	-180.000000	-11.151320	 37.485660	 18.078690	-3.047054	-2.678621	-111.614700	 5.390477	-42.249500	-0.373003	-4.130319	 21.525730	 0.991547	-5.167930	 0.731704	 3.519349	-1.378229	 35.397820	-2.634230	-16.698510	 7.676485	 8.203503	-22.151660	-22.502610	-15.779500	 89.782170	 78.283500	 179.994900	 60.619700	-16.015840	-11.503580	-13.126090	-7.808868	 47.594040	-56.733160	 4.767681	-68.071210	 5.716227	 19.173190	-3.685159	 5.027444	 0.246877	-9.377972	-2.350882	 35.473990	 5.254307
-0.419788	 0.226541	 1.249993	-171.584300	 6.944836	 10.678680	 6.377813	 3.682154	-176.323600	-8.308174	-26.212380	-3.943049	 100.917800	 57.432130	-115.977800	-2.385833	 28.452760	 0.000004	 20.661790	-44.403290	 168.543000	 5.362315	-47.889320	 2.850375	-0.982950	 71.338780	 16.978940	 2.384659	 28.388700	-0.000001	 32.012890	-13.783250	 4.746819	 38.059060	 12.671440	 22.264540	-4.006896	 2.009032	-15.633170	-91.776210	 78.527400	-180.000000	-13.776700	 37.399380	 20.642220	-2.931609	-2.311623	-112.250500	 5.661460	-44.599270	-0.390331	-4.130319	 21.525730	 0.991547	-5.167930	 0.731704	 3.519349	-1.378229	 35.397820	-2.634230	-16.202160	 7.754242	 8.434416	-21.583000	-22.562530	-15.929860	 89.782230	 78.287840	 179.993700	 56.814240	-17.506940	-12.905270	-13.138640	-7.850888	 47.695040	-57.220200	 2.622231	-66.393450	 5.716227	 19.173190	-3.685159	 5.027444	 0.246877	-9.377972	-2.350882	 35.473990	 5.254307
